<?xml version="1.0" encoding="UTF-8" standalone="no" ?>
<!DOCTYPE svg PUBLIC "-//W3C//DTD SVG 1.1//EN" "http://www.w3.org/Graphics/SVG/1.1/DTD/svg11.dtd">
<svg xmlns="http://www.w3.org/2000/svg" xmlns:xlink="http://www.w3.org/1999/xlink" version="1.1" width="387.4553125" height="190.12223999999998" xml:space="preserve">
<desc>Created with Fabric.js 1.6.0-rc.1</desc>
<defs></defs>
<g style="stroke: none; stroke-width: 1; stroke-dasharray: none; stroke-linecap: butt; stroke-linejoin: miter; stroke-miterlimit: 10; fill: none; fill-rule: nonzero; opacity: 1;" transform="translate(10 10) scale(0.3 0.3)" >
  <path d="M 451.765 380.232 c -4.631 -10.037 -12.785 -18.033 -22.912 -22.453 l -73.894 -19.855 c 60.792 -72.561 100.864 -161.257 -1.446 -265.261 c -37.647 -38.28 -112.941 -53.835 -112.941 -53.835 s -75.294 15.556 -112.941 53.835 C 26.18 175.8 66.417 264.911 127.066 337.901 L 53.03 357.794 c -10.127 4.405 -18.281 12.401 -22.912 22.438 L 0 463.055 h 240.941 h 240.941 L 451.765 380.232 z" style="stroke: none; stroke-width: 1; stroke-dasharray: none; stroke-linecap: butt; stroke-linejoin: miter; stroke-miterlimit: 10; fill: #212121; fill-rule: nonzero; opacity: 1;" transform=" matrix(1 0 0 1 0 0) " stroke-linecap="round" />
  <path d="M 323.381 118.584 c -22.588 -22.965 -45.176 -15.307 -82.824 -15.307 s -60.235 -7.657 -82.824 15.307 c -36.427 37.037 -19.697 124.68 14.908 196.751 c 30.359 31.443 68.299 42.308 68.299 42.308 s 36.706 -10.511 66.801 -40.772 C 342.844 244.529 360.072 155.878 323.381 118.584 z" style="stroke: none; stroke-width: 1; stroke-dasharray: none; stroke-linecap: butt; stroke-linejoin: miter; stroke-miterlimit: 10; fill: #E0E0E0; fill-rule: nonzero; opacity: 1;" transform=" matrix(1 0 0 1 0 0) " stroke-linecap="round" />
  <path d="M 157.734 118.584 c -36.563 37.18 -19.569 125.35 15.3 197.572 c 30.223 30.825 67.524 41.487 67.524 41.487 V 103.277 C 202.91 103.277 180.322 95.62 157.734 118.584 z" style="stroke: none; stroke-width: 1; stroke-dasharray: none; stroke-linecap: butt; stroke-linejoin: miter; stroke-miterlimit: 10; fill: #FFFFFF; fill-rule: nonzero; opacity: 1;" transform=" matrix(1 0 0 1 0 0) " stroke-linecap="round" />
  <polygon points="240.56,350.11 225.51,297.41 255.62,297.41 " style="stroke: none; stroke-width: 1; stroke-dasharray: none; stroke-linecap: butt; stroke-linejoin: miter; stroke-miterlimit: 10; fill: #212121; fill-rule: nonzero; opacity: 1;" transform="  matrix(1 0 0 1 0 0) "/>
  <path d="M 316.235 237.173 l -22.588 15.059 L 256 237.173 h -7.529 h -15.059 h -7.529 l -37.647 15.059 l -22.588 -15.059 h -7.529 l 15.812 21.082 c 4.262 5.7 10.963 9.035 18.071 9.035 h 33.882 l 15.059 -20.081 L 256 267.29 h 33.882 c 7.1 0 13.801 -3.336 18.071 -9.035 l 15.812 -21.082 H 316.235 z" style="stroke: none; stroke-width: 1; stroke-dasharray: none; stroke-linecap: butt; stroke-linejoin: miter; stroke-miterlimit: 10; fill: #212121; fill-rule: nonzero; opacity: 1;" transform=" matrix(1 0 0 1 0 0) " stroke-linecap="round" />
  <path d="M 233.035 191.996 c -22.588 -45.176 -75.294 0 -75.294 0 H 233.035 z" style="stroke: none; stroke-width: 1; stroke-dasharray: none; stroke-linecap: butt; stroke-linejoin: miter; stroke-miterlimit: 10; fill: #212121; fill-rule: nonzero; opacity: 1;" transform=" matrix(1 0 0 1 0 0) " stroke-linecap="round" />
  <path d="M 248.094 191.996 c 22.588 -45.176 75.294 0 75.294 0 H 248.094 z" style="stroke: none; stroke-width: 1; stroke-dasharray: none; stroke-linecap: butt; stroke-linejoin: miter; stroke-miterlimit: 10; fill: #212121; fill-rule: nonzero; opacity: 1;" transform=" matrix(1 0 0 1 0 0) " stroke-linecap="round" />
  <path d="M 165.271 131.761 c 15.059 -7.529 67.765 23.635 67.765 23.635 S 187.859 94.114 165.271 131.761 z" style="stroke: none; stroke-width: 1; stroke-dasharray: none; stroke-linecap: butt; stroke-linejoin: miter; stroke-miterlimit: 10; fill: #212121; fill-rule: nonzero; opacity: 1;" transform=" matrix(1 0 0 1 0 0) " stroke-linecap="round" />
  <path d="M 315.859 131.761 c -15.059 -7.529 -67.765 23.635 -67.765 23.635 S 293.271 94.114 315.859 131.761 z" style="stroke: none; stroke-width: 1; stroke-dasharray: none; stroke-linecap: butt; stroke-linejoin: miter; stroke-miterlimit: 10; fill: #212121; fill-rule: nonzero; opacity: 1;" transform=" matrix(1 0 0 1 0 0) " stroke-linecap="round" />
  <path d="M 240.941 357.643 c 0 0 -37.338 -10.677 -67.576 -41.547 c 19.102 39.597 43.573 74.398 67.576 93.357 c 24.004 -18.982 48.474 -53.775 67.576 -93.357 C 278.28 346.967 240.941 357.643 240.941 357.643 z" style="stroke: none; stroke-width: 1; stroke-dasharray: none; stroke-linecap: butt; stroke-linejoin: miter; stroke-miterlimit: 10; fill: #F4B1A9; fill-rule: nonzero; opacity: 1;" transform=" matrix(1 0 0 1 0 0) " stroke-linecap="round" />
  <path d="M 173.365 316.096 c 19.102 39.597 43.573 74.398 67.576 93.357 v -51.81 C 240.941 357.643 203.603 346.967 173.365 316.096 z" style="stroke: none; stroke-width: 1; stroke-dasharray: none; stroke-linecap: butt; stroke-linejoin: miter; stroke-miterlimit: 10; fill: #FFCDD2; fill-rule: nonzero; opacity: 1;" transform=" matrix(1 0 0 1 0 0) " stroke-linecap="round" />
</g>
  <g transform="translate(262.93 121.08) scale(0.4 0.4)">
   <text font-family="undefined" font-size="40" font-weight="normal" style="stroke: none; stroke-width: 1; stroke-dasharray: none; stroke-linecap: butt; stroke-linejoin: miter; stroke-miterlimit: 10; fill: #000000; fill-rule: nonzero; opacity: 1;" ><tspan x="-286.81" y="8.98" style="stroke: none; stroke-width: 0; stroke-dasharray: none; stroke-linecap: butt; stroke-linejoin: miter; stroke-miterlimit: 4; fill: #000000; fill-rule: ; opacity: 1;">P</tspan><tspan x="-264.38" y="8.98" style="stroke: none; stroke-width: 0; stroke-dasharray: none; stroke-linecap: butt; stroke-linejoin: miter; stroke-miterlimit: 4; fill: #000000; fill-rule: ; opacity: 1;">h</tspan><tspan x="-237.08" y="8.98" style="stroke: none; stroke-width: 0; stroke-dasharray: none; stroke-linecap: butt; stroke-linejoin: miter; stroke-miterlimit: 4; fill: #000000; fill-rule: ; opacity: 1;">i</tspan><tspan x="-226.3" y="8.98" style="stroke: none; stroke-width: 0; stroke-dasharray: none; stroke-linecap: butt; stroke-linejoin: miter; stroke-miterlimit: 4; fill: #000000; fill-rule: ; opacity: 1;">s</tspan><tspan x="-205.19" y="8.98" style="stroke: none; stroke-width: 0; stroke-dasharray: none; stroke-linecap: butt; stroke-linejoin: miter; stroke-miterlimit: 4; fill: #000000; fill-rule: ; opacity: 1;">h</tspan><tspan x="-177.88" y="8.98" style="stroke: none; stroke-width: 0; stroke-dasharray: none; stroke-linecap: butt; stroke-linejoin: miter; stroke-miterlimit: 4; fill: #000000; fill-rule: ; opacity: 1;">i</tspan><tspan x="-167.1" y="8.98" style="stroke: none; stroke-width: 0; stroke-dasharray: none; stroke-linecap: butt; stroke-linejoin: miter; stroke-miterlimit: 4; fill: #000000; fill-rule: ; opacity: 1;">n</tspan><tspan x="-137.59" y="8.98" style="stroke: none; stroke-width: 0; stroke-dasharray: none; stroke-linecap: butt; stroke-linejoin: miter; stroke-miterlimit: 4; fill: #000000; fill-rule: ; opacity: 1;">g</tspan><tspan x="-109.19" y="8.98" style="stroke: none; stroke-width: 0; stroke-dasharray: none; stroke-linecap: butt; stroke-linejoin: miter; stroke-miterlimit: 4; fill: #000000; fill-rule: ; opacity: 1;"> </tspan><tspan x="-97.2" y="8.98" style="stroke: none; stroke-width: 0; stroke-dasharray: none; stroke-linecap: butt; stroke-linejoin: miter; stroke-miterlimit: 4; fill: #000000; fill-rule: ; opacity: 1;">D</tspan><tspan x="-70.21" y="8.98" style="stroke: none; stroke-width: 0; stroke-dasharray: none; stroke-linecap: butt; stroke-linejoin: miter; stroke-miterlimit: 4; fill: #000000; fill-rule: ; opacity: 1;">e</tspan><tspan x="-46.94" y="8.98" style="stroke: none; stroke-width: 0; stroke-dasharray: none; stroke-linecap: butt; stroke-linejoin: miter; stroke-miterlimit: 4; fill: #000000; fill-rule: ; opacity: 1;">t</tspan><tspan x="-23.58" y="8.98" style="stroke: none; stroke-width: 0; stroke-dasharray: none; stroke-linecap: butt; stroke-linejoin: miter; stroke-miterlimit: 4; fill: #000000; fill-rule: ; opacity: 1;">e</tspan><tspan x="-0.32" y="8.98" style="stroke: none; stroke-width: 0; stroke-dasharray: none; stroke-linecap: butt; stroke-linejoin: miter; stroke-miterlimit: 4; fill: #000000; fill-rule: ; opacity: 1;">c</tspan><tspan x="26.75" y="8.98" style="stroke: none; stroke-width: 0; stroke-dasharray: none; stroke-linecap: butt; stroke-linejoin: miter; stroke-miterlimit: 4; fill: #000000; fill-rule: ; opacity: 1;">t</tspan><tspan x="50.11" y="8.98" style="stroke: none; stroke-width: 0; stroke-dasharray: none; stroke-linecap: butt; stroke-linejoin: miter; stroke-miterlimit: 4; fill: #000000; fill-rule: ; opacity: 1;">i</tspan><tspan x="60.89" y="8.98" style="stroke: none; stroke-width: 0; stroke-dasharray: none; stroke-linecap: butt; stroke-linejoin: miter; stroke-miterlimit: 4; fill: #000000; fill-rule: ; opacity: 1;">o</tspan><tspan x="94.83" y="8.98" style="stroke: none; stroke-width: 0; stroke-dasharray: none; stroke-linecap: butt; stroke-linejoin: miter; stroke-miterlimit: 4; fill: #000000; fill-rule: ; opacity: 1;">n</tspan><tspan x="124.35" y="8.98" style="stroke: none; stroke-width: 0; stroke-dasharray: none; stroke-linecap: butt; stroke-linejoin: miter; stroke-miterlimit: 4; fill: #000000; fill-rule: ; opacity: 1;"> </tspan><tspan x="136.34" y="8.98" style="stroke: none; stroke-width: 0; stroke-dasharray: none; stroke-linecap: butt; stroke-linejoin: miter; stroke-miterlimit: 4; fill: #000000; fill-rule: ; opacity: 1;">S</tspan><tspan x="157.45" y="8.98" style="stroke: none; stroke-width: 0; stroke-dasharray: none; stroke-linecap: butt; stroke-linejoin: miter; stroke-miterlimit: 4; fill: #000000; fill-rule: ; opacity: 1;">y</tspan><tspan x="184.97" y="8.98" style="stroke: none; stroke-width: 0; stroke-dasharray: none; stroke-linecap: butt; stroke-linejoin: miter; stroke-miterlimit: 4; fill: #000000; fill-rule: ; opacity: 1;">s</tspan><tspan x="206.08" y="8.98" style="stroke: none; stroke-width: 0; stroke-dasharray: none; stroke-linecap: butt; stroke-linejoin: miter; stroke-miterlimit: 4; fill: #000000; fill-rule: ; opacity: 1;">t</tspan><tspan x="229.44" y="8.98" style="stroke: none; stroke-width: 0; stroke-dasharray: none; stroke-linecap: butt; stroke-linejoin: miter; stroke-miterlimit: 4; fill: #000000; fill-rule: ; opacity: 1;">e</tspan><tspan x="252.71" y="8.98" style="stroke: none; stroke-width: 0; stroke-dasharray: none; stroke-linecap: butt; stroke-linejoin: miter; stroke-miterlimit: 4; fill: #000000; fill-rule: ; opacity: 1;">m</tspan></text>
 </g>
  <g transform="translate(262.23 120.96) rotate(0.56) scale(1.2 1.16)">
   <text font-family="ADAMCG PRO" font-size="40" font-style="italic" font-weight="bold" style="stroke: none; stroke-width: 1; stroke-dasharray: none; stroke-linecap: butt; stroke-linejoin: miter; stroke-miterlimit: 10; fill: #a3273c; fill-rule: nonzero; opacity: 1;" ><tspan x="-91.68" y="-17.23" fill="#a3273c">Not Phishy</tspan><tspan x="-91.68" y="35.2" fill="#a3273c"></tspan></text>
 </g>
</svg>